<svg version="1.0" xmlns="http://www.w3.org/2000/svg"
 width="1540.000000pt" height="1495.000000pt" viewBox="0 0 1540.000000 1495.000000"
 preserveAspectRatio="xMidYMid meet">

<g transform="translate(0.000000,1495.000000) scale(0.100000,-0.100000)">
<path fill="currentColor" d="M7340 14929 c-229 -10 -561 -35 -740 -55 -586 -65 -1123 -220 -1953
-562 -25 -10 -37 -21 -35 -31 3 -14 51 -18 363 -33 489 -22 1066 -46 1440 -58
684 -23 1386 -71 1860 -126 279 -32 601 -85 615 -101 4 -5 22 -48 40 -98 150
-411 522 -975 992 -1502 59 -66 108 -124 108 -127 0 -32 -269 -446 -486 -751
-55 -77 -191 -274 -303 -438 -469 -693 -700 -987 -1018 -1298 -279 -273 -490
-423 -821 -586 -345 -170 -547 -317 -764 -558 -199 -222 -365 -464 -625 -918
-218 -381 -286 -487 -432 -676 -310 -402 -595 -816 -896 -1306 -569 -925 -948
-1366 -1429 -1660 -396 -243 -896 -722 -1285 -1235 -162 -212 -1965 -2790
-1957 -2797 7 -7 -10 -20 492 383 1943 1559 3303 2552 3972 2901 267 139 412
239 699 484 199 168 812 780 1183 1179 342 368 853 881 970 974 107 84 208
136 265 136 40 0 52 -7 161 -101 229 -195 667 -524 1292 -972 177 -127 319
-234 315 -237 -5 -4 -80 -15 -168 -24 -212 -22 -328 -47 -520 -111 -227 -75
-361 -134 -775 -341 -234 -117 -428 -206 -540 -249 -328 -125 -1151 -393
-1817 -591 -128 -38 -233 -73 -233 -78 0 -5 102 -6 233 -2 127 4 473 13 767
21 1499 42 2579 86 3165 131 1040 79 1629 239 1925 522 51 50 59 63 66 107 31
211 -205 680 -669 1330 -380 532 -955 1222 -1244 1491 -164 153 -242 267 -281
410 l-20 71 92 60 c50 33 182 132 293 221 111 88 222 174 245 190 137 94 533
302 955 500 244 116 376 189 558 313 171 116 321 234 476 374 l127 114 66 -78
c360 -427 1882 -1617 2370 -1852 131 -64 214 -51 312 47 242 242 479 1012 598
1944 38 297 48 426 47 650 0 350 -45 693 -142 1085 -34 138 -110 397 -137 469
l-19 48 -25 -43 c-130 -223 -278 -600 -343 -871 -13 -57 -31 -182 -40 -278
-61 -678 -135 -1032 -275 -1310 -48 -95 -144 -241 -158 -239 -4 0 -65 77 -137
171 -292 384 -674 821 -1091 1248 -148 152 -176 185 -207 250 -33 68 -134 407
-124 416 2 2 64 -48 138 -112 74 -64 157 -127 186 -140 167 -80 363 -35 608
137 114 80 419 384 498 496 128 181 211 351 251 513 99 408 -13 805 -309 1095
-277 272 -718 403 -1036 309 -301 -89 -529 -401 -584 -798 -31 -228 -101 -403
-184 -461 -75 -52 -166 -38 -267 43 -26 21 -35 36 -40 72 -41 308 -257 617
-689 985 -77 65 -309 286 -515 489 -626 618 -1181 1150 -1303 1247 -115 92
-448 152 -986 179 -233 11 -847 11 -1121 -1z"/>
<path fill="currentColor" d="M11733 14275 c-29 -8 -110 -43 -180 -78 -158 -80 -313 -147 -508
-221 -161 -61 -317 -134 -322 -152 -4 -13 558 -561 687 -669 385 -324 638
-666 714 -964 12 -50 26 -94 29 -98 19 -19 79 184 97 328 12 103 48 228 95
339 l35 83 -21 15 c-37 26 -21 80 99 328 162 337 196 449 158 523 -18 35 -67
61 -112 61 -93 0 -158 52 -295 236 -54 72 -122 153 -151 179 -99 89 -214 121
-325 90z"/>
<path fill="currentColor" d="M5324 13945 c-900 -114 -1526 -634 -1820 -1512 -91 -273 -130 -508
-144 -873 -6 -140 -15 -365 -20 -500 -19 -461 -65 -750 -170 -1053 -108 -315
-261 -578 -479 -825 l-70 -80 45 -42 c66 -61 139 -91 236 -98 l81 -5 266 -189
c184 -131 272 -188 286 -185 11 3 67 15 125 28 91 20 133 23 315 23 193 1 216
-1 285 -22 150 -48 235 -109 286 -207 l29 -55 805 0 805 0 54 77 c106 149 216
280 340 404 223 223 389 339 706 494 116 57 264 139 330 182 347 230 674 561
1045 1058 127 170 194 267 524 750 97 143 237 344 309 447 73 103 169 246 215
318 l83 130 -73 83 c-41 45 -111 128 -157 185 -46 56 -88 102 -92 102 -7 0
-419 -240 -520 -303 -11 -7 -23 -2 -45 21 -18 17 -54 37 -84 46 -51 15 -225
43 -304 48 l-39 3 -62 185 c-109 327 -195 516 -267 591 -34 35 -43 39 -86 39
-69 0 -155 -46 -248 -133 -88 -82 -67 -87 -159 39 -67 93 -181 211 -290 302
-317 266 -723 440 -1195 513 -177 28 -673 36 -846 14z"/>
<path fill="currentColor" d="M13919 10744 c-13 -15 -60 -54 -104 -89 -224 -175 -423 -263 -609
-268 l-74 -2 136 -140 c152 -156 376 -399 528 -576 l100 -115 35 59 c39 68 96
122 176 167 75 43 89 77 73 180 -17 106 -81 362 -147 585 -30 105 -57 198 -60
208 -7 24 -26 21 -54 -9z"/>
<path fill="currentColor" d="M11900 8863 c-171 -148 -456 -350 -647 -458 l-98 -55 735 0 c411 0
730 4 725 9 -6 4 -89 76 -186 159 -97 83 -237 209 -311 281 -75 72 -137 131
-139 130 -2 0 -38 -30 -79 -66z"/>
<path fill="currentColor" d="M4684 8108 c41 -70 135 -186 186 -228 l48 -40 478 2 478 3 61 105
c33 58 73 126 89 153 l28 47 -697 0 -696 0 25 -42z"/>
<path fill="currentColor" d="M10515 8042 c-115 -59 -245 -128 -288 -152 l-79 -45 1433 -3 c788 -1
1434 0 1437 3 2 2 -8 34 -22 71 -15 37 -30 89 -33 116 -5 41 -12 53 -49 83
l-42 35 -1074 0 -1073 -1 -210 -107z"/>
<path fill="currentColor" d="M5237 7577 c111 -103 165 -151 227 -201 89 -71 93 -69 198 104 48 79
88 148 88 152 0 4 -131 8 -290 8 l-290 0 67 -63z"/>
<path fill="currentColor" d="M9716 7535 c-70 -57 -150 -119 -177 -137 -100 -68 -243 -63 1834 -66
1032 -1 1877 2 1877 6 0 5 -31 56 -68 115 -38 59 -75 125 -82 147 l-13 40
-1621 0 -1621 -1 -129 -104z"/>
<path fill="currentColor" d="M9832 6970 l156 -160 1626 0 1626 0 0 38 c0 20 9 80 20 132 11 52 20
107 20 123 l0 27 -1802 0 -1803 0 157 -160z"/>
<path fill="currentColor" d="M10288 6455 l127 -154 1508 -1 1508 0 -17 32 c-9 17 -34 60 -55 94
-21 35 -52 90 -69 124 l-30 60 -1550 0 -1550 0 128 -155z"/>
<path fill="currentColor" d="M10587 6088 c468 -598 823 -1142 976 -1498 77 -177 100 -268 101
-395 1 -103 -1 -114 -30 -175 -78 -164 -358 -348 -706 -465 l-129 -43 68 -72
c86 -91 371 -305 498 -373 58 -31 56 -25 35 -135 -22 -115 -26 -238 -8 -277
27 -59 89 -39 206 68 293 267 535 366 972 396 163 12 223 26 293 71 165 104
259 130 557 150 690 47 1238 239 1203 420 -2 14 -40 70 -84 124 -110 138 -111
143 -60 271 77 194 54 262 -125 356 -79 42 -112 67 -226 175 -120 114 -177
144 -269 144 -78 0 -130 -17 -219 -70 -91 -55 -110 -57 -150 -23 -43 36 -90
110 -90 142 0 33 72 102 187 179 113 76 147 114 139 156 -8 41 -32 65 -161
161 -153 115 -165 142 -124 269 l21 65 -21 69 c-28 94 -27 115 13 186 18 34
36 78 40 99 l7 37 -1462 0 c-1168 0 -1459 -3 -1452 -12z"/>
</g>
</svg>
